<svg clip-rule="evenodd" fill-rule="evenodd" height="8.467mm" image-rendering="optimizeQuality" shape-rendering="geometricPrecision" text-rendering="geometricPrecision" viewBox="0 0 846.66 846.66" width="8.467mm" xmlns="http://www.w3.org/2000/svg"><g id="Layer_x0020_1"><path d="m48.39 402.26c-39.91-100.02 30.01-201.16 139.39-201.16h318.41c22.13 0 40.07-15.55 57.69-29.55-13.27-52.93-6.77-100.01-5.87-105.84 1.32-10.3 10.65-17.7 21.03-16.6 68.98 7.41 92.9 70.57 100.02 97.48 75.84 27.1 127.46 113.58 127.62 113.84 11.23 18.66-13.32 31.21-15.2 35.25-1.42 3.04 3.99 36.71-21.46 35.11-8.02-.5-61.7-28.92-66-19.65-9.47 20.38.87 181.34-103.39 235.49l-20.68 150.53c.64 3.05 26.67 39.78 28.37 48.29 2.07 10.36-4.65 20.44-15.01 22.51l-93.91 19.03c-16.67 4.13-27.9-10.9-23.7-24.2l9.95-31.45-12.36-20.87.03-.02c-1.62-2.74-2.59-5.93-2.65-9.36l-3.27-139.87c-64.99-2.82-137.36-9.99-203.7-24.6l-79.55 75.92 16.2 76.68 29.68 49.17c3.23 10.07-2.31 20.85-12.38 24.09l-104.3 33.82c-16.61 6.04-30.04-9.2-25.5-23.58l9.95-31.45c-5.34-9.02-15.06-22.34-15.06-30.62v-123.3c-1.49-10.06-34.35-106.74-34.35-115.67zm574.26-167.08c-24.41-6.51-14.49-43.59 9.9-37.06l27.91 7.47c24.41 6.53 14.49 43.6-9.9 37.07zm-58.68 296.8 9.16-66.6c3.4-25.03 41.35-19.84 37.97 5.11l-3.24 23.53c41.18-41.73 50.23-115.97 53.81-162.61 5.11-66.59 35.66-70.37 92.38-48.14 1.43-7.27 6.07-10.61 11.38-15.7-16.73-23.77-57.03-73.91-107.59-87.45-61.98-16.61-81.36 59.4-151.65 59.4h-318.41c-62.63 0-112.28 43.85-112.28 105.36 0 11.18 1.71 22.69 5.32 34.25 3.69 3.49 5.99 8.44 5.99 13.93v76.03c1.48 10 34.27 106.48 34.28 115.67h.07v120.7l14.03 23.69c2.89 4.88 3.36 10.51 1.78 15.53h.02l-1.29 4.11 47.01-15.25c-4.25-6.88-17.94-27.31-19.18-33.26h-.02l-19.07-90.33c-1.42-6.81.97-13.54 5.73-17.95l158.08-150.87c18.24-17.38 44.69 10.35 26.41 27.77l-37.14 35.44c55.58 10.4 115.87 16.08 168.98 18.51l-1.29-55.25c-.54-25.13 37.73-26 38.27-.75l5.34 228.35 14.22 24.02c2.88 4.88 3.36 10.51 1.78 15.53h.02l-2.72 8.6 36.75-7.45-15.12-24.51c-2.42-3.92-3.25-8.37-2.68-12.6l-.02-.01zm34.06-383.43c11.31-5.57 23.78-9.28 38.36-9.6-6.91-16.8-19.66-37.36-42.33-46.87-.57 14.12-.18 34.22 3.97 56.47z" fill-rule="nonzero"/></g></svg>