<svg id="Capa_1" enable-background="new 0 0 507.92 507.92" height="512" viewBox="0 0 507.92 507.92" width="512" xmlns="http://www.w3.org/2000/svg"><g><path d="m438.835 387.729c-6.228-14.523-18.229-26.177-32.931-31.973 0 0-86.405-34.071-86.518-34.115 0 0-8.042-3.797-8.042-6.937v-24.585c0-.042-.006-.083-.006-.124 28.008-21.055 44.626-51.025 49.591-89.403 19.359-1.297 34.717-17.45 34.717-37.132 0-17.811-12.576-32.732-29.312-36.371v-14.645c-.001-62.002-50.443-112.444-112.445-112.444-33.473 0-64.973 14.763-86.422 40.503-2.651 3.182-2.222 7.911.96 10.563 3.183 2.651 7.911 2.223 10.563-.96 18.591-22.311 45.891-35.106 74.9-35.106 53.73 0 97.443 43.713 97.443 97.443v9.081l-39.826-7.36c-38.679-7.147-77.89-7.103-116.549.132l-38.513 7.208v-9.06c0-13.723 2.794-26.988 8.304-39.427 1.678-3.787-.032-8.217-3.82-9.895-3.785-1.676-8.217.031-9.895 3.82-6.362 14.364-9.589 29.673-9.589 45.502v14.678c-16.665 3.692-29.171 18.578-29.171 36.338 0 19.251 14.69 35.136 33.448 37.036 5.021 38.993 22.06 69.316 50.852 90.435v23.775c0 2.287-1.375 4.307-3.503 5.147-.003.001-.006.003-.009.004-.002.001-.004.001-.006.002l-91.041 35.899c-14.701 5.796-26.703 17.45-32.931 31.973-3.932 9.167-7.373 18.655-10.23 28.203-1.188 3.968 1.066 8.148 5.034 9.336.717.215 1.441.317 2.153.317 3.228 0 6.209-2.101 7.182-5.352 2.695-9.002 5.94-17.949 9.646-26.593 4.661-10.869 13.645-19.591 24.64-23.927l45.954-18.063-7.41 29.944c-1.319 5.33-.213 10.846 2.877 15.197-17.804 23.236-28.403 52.27-28.403 83.738 0 4.13.207 8.271.575 12.391h-56.592c-.929 0-1.684-.755-1.684-1.684 0-14.506 1.289-29.105 3.832-43.391.726-4.078-1.991-7.973-6.069-8.698-4.074-.723-7.973 1.991-8.698 6.069-2.697 15.152-4.064 30.635-4.064 46.021 0 9.199 7.484 16.683 16.684 16.683h378.9c9.199 0 16.684-7.484 16.684-16.683-.001-35.791-7.153-70.616-21.26-103.51zm-90.752-11.992c-8.994-7.702-18.984-14.273-29.753-19.481l4.223-17.243 18.219 7.184zm-186.877 7.071 9.159-37.01c.083-.335.213-.653.383-.947l19.184-7.615 3.552 21.646c-11.909 6.388-22.778 14.469-32.278 23.926zm46.398-30.504-3.56-21.696c4.701-3.821 7.531-9.586 7.531-15.904v-14.366c13.06 6.668 27.407 10.016 41.759 10.016 14.811 0 29.62-3.557 43.011-10.658v15.008c0 10.676 6.725 15.868 12.161 18.602l-4.191 17.114c-14.349-5.071-29.776-7.84-45.839-7.84-17.958.001-35.123 3.454-50.872 9.724zm173.042-188.844c0 10.944-7.953 20.059-18.382 21.887.12-2.491.208-8.431.14-8.853 2.514-3.946 3.929-8.549 3.929-13.324v-20.475c8.359 3.196 14.313 11.296 14.313 20.765zm-182.928-34.42c36.838-6.894 74.207-6.937 111.062-.126l42.553 7.864v26.391c0 3.562-2.016 6.927-5.262 8.78-4.155 2.374-9.548 1.859-13.116-1.249l-13.308-11.593c-15.132-13.183-33.816-21.435-54.035-23.864-8.096-.973-16.307-.973-24.402 0-20.218 2.429-38.902 10.681-54.035 23.864l-13.307 11.593c-3.568 3.107-8.963 3.621-13.117 1.249-3.246-1.853-5.262-5.217-5.262-8.78v-24.934c.338-.449.629-.935.86-1.454zm-70.443 34.42c0-9.048 5.438-16.846 13.215-20.31v20.02c0 4.651 1.341 9.139 3.734 13.016-.044.341.045 6.311.167 8.901-9.8-2.317-17.116-11.131-17.116-21.627zm32.276 24.073c8.358 2.254 17.463.322 24.171-5.522l13.307-11.593c12.855-11.199 28.752-18.212 45.971-20.281 6.908-.829 13.916-.829 20.824 0 17.22 2.069 33.116 9.082 45.971 20.281l13.308 11.593c4.892 4.261 11.057 6.452 17.278 6.451 2.257 0 4.522-.289 6.736-.872-2.819 43.265-20.528 75.511-52.75 95.93-24.926 15.796-57.139 15.796-82.064 0-32.238-20.429-49.946-52.694-52.752-95.987zm-24.023 292.996c0-67.794 55.154-122.948 122.948-122.948s122.948 55.154 122.948 122.948c0 4.128-.211 8.275-.622 12.391h-21.556c.502-4.108.758-8.251.758-12.391 0-55.983-45.546-101.529-101.528-101.529-55.983 0-101.529 45.545-101.529 101.529 0 4.141.256 8.283.758 12.391h-21.555c-.412-4.113-.622-8.26-.622-12.391zm176.607 12.391 28.608-39.214c2.762 8.449 4.261 17.464 4.261 26.823 0 4.146-.304 8.292-.893 12.391zm-27.274 0 20.79-84.893c11.569 7.553 21.228 17.796 28.081 29.837l-40.163 55.056zm-67.391 0-36.736-50.358c5.991-12.217 14.778-22.824 25.523-30.981l19.92 81.339zm-44.631 0c-.589-4.099-.893-8.246-.893-12.391 0-7.246.9-14.285 2.586-21.015l24.37 33.406zm68.663-.49-21.85-89.216c11.683-5.89 24.871-9.214 38.823-9.214 11.876 0 23.2 2.406 33.512 6.755l-22.452 91.675c-.04.163-.065.327-.094.49h-27.846c-.027-.163-.053-.326-.093-.49zm201.908.49h-47.562c.368-4.122.575-8.264.575-12.391 0-33.531-12.031-64.303-31.996-88.236 1.212-3.411 1.436-7.143.556-10.699l-7.089-28.645 42.507 16.761c11.003 4.339 19.986 13.061 24.647 23.931 13.3 31.015 20.044 63.851 20.044 97.596.002.928-.753 1.683-1.682 1.683z"/></g></svg>