<svg id="Capa_1" enable-background="new 0 0 512 512" height="512" viewBox="0 0 512 512" width="512" xmlns="http://www.w3.org/2000/svg"><g><path d="m512 254.336-7.958-58.087-54.813-46.678h-83.544v167.856h-14.999v-197.855h-350.686v44.999h15v-29.999h320.686v182.855h-320.686v-137.856h-15v182.856h46.117c3.484 17.096 18.635 30 36.745 30s33.261-12.904 36.745-30h16.509c3.484 17.096 18.635 30 36.744 30 18.11 0 33.261-12.904 36.745-30h144.894v-15h-144.892c-1.129-5.539-3.484-10.637-6.766-15h177.844v-167.856h63.022l32.918 28.032h-80.94v69.744h101.315v40.081h-22.5v15h22.5v29.999h-23.255c-3.484-17.095-18.635-29.999-36.745-29.999s-33.261 12.904-36.745 29.999h-30.754v15h30.754c3.484 17.096 18.635 30 36.745 30s33.261-12.904 36.745-30h38.255zm-497 78.092h37.883c-3.283 4.363-5.637 9.461-6.766 15h-31.117zm67.862 45c-12.406 0-22.5-10.094-22.5-22.5s10.094-22.499 22.5-22.499 22.5 10.093 22.5 22.499-10.093 22.5-22.5 22.5zm89.999 0c-12.406 0-22.499-10.094-22.499-22.5s10.093-22.499 22.499-22.499 22.5 10.093 22.5 22.499-10.093 22.5-22.5 22.5zm-36.744-30h-16.509c-1.129-5.539-3.484-10.637-6.766-15h30.042c-3.283 4.362-5.638 9.461-6.767 15zm300.883 30c-12.406 0-22.5-10.094-22.5-22.5s10.094-22.499 22.5-22.499 22.5 10.093 22.5 22.499-10.094 22.5-22.5 22.5zm-26.315-169.824h79.773l5.445 39.744h-85.218z"/><path d="m395.685 277.348h30v15h-30z"/><path d="m224.093 165.666h15v120.668h-15z"/><path d="m261.592 165.666h15v120.668h-15z"/><path d="m111.593 165.666h15v120.668h-15z"/><path d="m186.593 165.666h15v120.668h-15z"/><path d="m149.093 165.666h15v120.668h-15z"/><path d="m74.094 165.666h15v120.668h-15z"/><path d="m305.686 149.571h15v15h-15z"/><path d="m305.686 179.571h15v15.001h-15z"/></g></svg>